<?xml version="1.0"?>
<svg xmlns="http://www.w3.org/2000/svg" viewBox="0 0 24 24">
    <path style="text-indent:0;text-align:start;line-height:normal;text-transform:none;block-progression:tb;-inkscape-font-specification:Sans" d="M 7 2 C 4.2507637 2 2 4.2507637 2 7 L 2 16.96875 C 2 19.717986 4.2507637 21.96875 7 21.96875 L 16.96875 21.96875 C 19.717986 21.96875 21.96875 19.717986 21.96875 16.96875 L 21.96875 7 C 21.96875 4.2507637 19.717986 2 16.96875 2 L 7 2 z M 7 4 L 16.96875 4 C 18.649514 4 19.96875 5.3192363 19.96875 7 L 19.96875 16.96875 C 19.96875 18.649514 18.649514 19.96875 16.96875 19.96875 L 7 19.96875 C 5.3192363 19.96875 4 18.649514 4 16.96875 L 4 7 C 4 5.3192363 5.3192363 4 7 4 z M 6.46875 9 C 6.1848756 9 5.96875 9.2321418 5.96875 9.5 C 5.96875 9.7678581 6.1848756 9.96875 6.46875 9.96875 C 6.7526243 9.96875 7 9.7678581 7 9.5 C 7 9.2321418 6.7526243 9 6.46875 9 z M 10.625 9.15625 C 9.113 9.15625 8.15625 10.21725 8.15625 11.90625 C 8.15625 13.59125 9.095 14.65625 10.625 14.65625 C 12.151 14.65625 13.0625 13.58825 13.0625 11.90625 C 13.0625 10.22125 12.144 9.15625 10.625 9.15625 z M 15.5625 9.15625 C 14.655713 9.2859277 14.09375 9.872875 14.09375 10.6875 C 14.09375 11.4555 14.52275 11.93525 15.46875 12.15625 L 16.125 12.3125 C 16.817 12.4755 17.125 12.726 17.125 13.125 C 17.125 13.588 16.653 13.90625 16 13.90625 C 15.301 13.90625 14.819 13.58975 14.75 13.09375 L 13.96875 13.09375 C 14.02675 14.02875 14.7775 14.625 15.9375 14.625 C 17.1765 14.625 17.96875 14.001 17.96875 13 C 17.96875 12.213 17.5095 11.77925 16.4375 11.53125 L 15.875 11.40625 C 15.193 11.24625 14.90625 10.998 14.90625 10.625 C 14.90625 10.153 15.32775 9.84375 15.96875 9.84375 C 16.57875 9.84375 16.9865 10.17425 17.0625 10.65625 L 17.875 10.65625 C 17.827 9.77425 17.03075 9.15625 15.96875 9.15625 C 15.826125 9.15625 15.692041 9.1377246 15.5625 9.15625 z M 10.625 9.9375 C 11.626 9.9375 12.25 10.69225 12.25 11.90625 C 12.25 13.11225 11.626 13.90625 10.625 13.90625 C 9.613 13.90625 9.03125 13.11325 9.03125 11.90625 C 9.03125 10.69225 9.632 9.9375 10.625 9.9375 z M 6.03125 10.96875 L 6.03125 14.625 L 6.9375 14.625 L 6.9375 10.96875 L 6.03125 10.96875 z" overflow="visible" font-family="Sans"/>
</svg>
